<svg width="70" height="68" viewBox="0 0 70 68" fill="none" xmlns="http://www.w3.org/2000/svg">
<path d="M35 2.34902L41.2776 15.6922L41.7004 16.5909L42.6019 16.1742L55.9876 9.9879L52.2197 24.2445L51.966 25.2047L52.9244 25.465L67.1549 29.3302L55.1046 37.8294L54.293 38.4019L54.8599 39.2174L63.2766 51.3255L48.5823 50.0904L47.5926 50.0073L47.5026 50.9964L46.1673 65.6819L35.7047 55.2905L35 54.5906L34.2953 55.2905L23.8327 65.6819L22.4974 50.9964L22.4074 50.0073L21.4177 50.0904L6.72342 51.3255L15.1401 39.2174L15.707 38.4019L14.8954 37.8294L2.84506 29.3302L17.0756 25.465L18.034 25.2047L17.7803 24.2445L14.0124 9.9879L27.3981 16.1742L28.2996 16.5909L28.7224 15.6922L35 2.34902Z" fill="#FED834" stroke="black" stroke-width="2"/>
</svg>
