<svg width="66" height="66" viewBox="0 0 66 66" fill="none" xmlns="http://www.w3.org/2000/svg">
<g filter="url(#filter0_d_13_98)">
<rect width="60" height="60" rx="10" fill="#FED834"/>
<rect x="0.5" y="0.5" width="59" height="59" rx="9.5" stroke="black"/>
</g>
<path d="M31.784 46.568C36.9609 46.568 41.6891 44.2127 44.8216 40.3532C45.285 39.7823 44.7797 38.9482 44.0635 39.0846C35.9205 40.6354 28.4425 34.3919 28.4425 26.1718C28.4425 21.4367 30.9773 17.0825 35.0969 14.7381C35.732 14.3767 35.5723 13.4139 34.8507 13.2806C33.8391 13.0941 32.8126 13.0002 31.784 13C22.5194 13 15 20.5076 15 29.784C15 39.0486 22.5076 46.568 31.784 46.568Z" fill="black"/>
<defs>
<filter id="filter0_d_13_98" x="0" y="0" width="66" height="66" filterUnits="userSpaceOnUse" color-interpolation-filters="sRGB">
<feFlood flood-opacity="0" result="BackgroundImageFix"/>
<feColorMatrix in="SourceAlpha" type="matrix" values="0 0 0 0 0 0 0 0 0 0 0 0 0 0 0 0 0 0 127 0" result="hardAlpha"/>
<feOffset dx="6" dy="6"/>
<feComposite in2="hardAlpha" operator="out"/>
<feColorMatrix type="matrix" values="0 0 0 0 0 0 0 0 0 0 0 0 0 0 0 0 0 0 1 0"/>
<feBlend mode="normal" in2="BackgroundImageFix" result="effect1_dropShadow_13_98"/>
<feBlend mode="normal" in="SourceGraphic" in2="effect1_dropShadow_13_98" result="shape"/>
</filter>
</defs>
</svg>
