<svg width="641" height="131" viewBox="0 0 641 131" fill="none" xmlns="http://www.w3.org/2000/svg">
<g filter="url(#filter0_d_2_39)">
<rect x="0.274048" y="28.1082" width="633" height="97.8547" rx="48.9273" transform="rotate(-1.71705 0.274048 28.1082)" fill="#E2CCFB"/>
<rect x="1.04618" y="28.8354" width="631.5" height="96.3547" rx="48.1773" transform="rotate(-1.71705 1.04618 28.8354)" stroke="black" stroke-width="1.5"/>
</g>
<path d="M102.531 97.0098L101.179 51.9101L106.377 51.7543L107.079 75.1838L130.046 51.0447L136.763 50.8434L136.787 51.643L118.14 70.3702L139.049 95.0348L139.073 95.8344L133.075 96.0142L114.487 74.0013L107.262 81.261L107.729 96.854L102.531 97.0098ZM147.166 59.4956C145.993 59.5307 145.185 59.2615 144.741 58.6879C144.348 58.0593 144.138 57.2653 144.109 56.3057C144.085 55.5061 144.251 54.8075 144.607 54.2099C145.014 53.5574 145.804 53.2136 146.977 53.1784C148.15 53.1432 148.932 53.4399 149.324 54.0685C149.769 54.6421 150.003 55.3287 150.027 56.1283C150.055 57.0879 149.866 57.8939 149.459 58.5464C149.103 59.144 148.339 59.4604 147.166 59.4956ZM145.688 95.6361L144.713 63.0907L149.83 62.9373L150.806 95.4827L145.688 95.6361ZM158.303 95.2579L157.328 62.7125L161.726 62.5807L162.847 70.6307L163.007 70.6259C163.053 70.3578 163.276 69.7908 163.677 68.9251C164.078 68.0593 164.69 67.1339 165.514 66.1488C166.39 65.1087 167.537 64.2206 168.956 63.4845C170.373 62.695 172.201 62.2667 174.44 62.1996C177.265 62.1149 179.493 62.555 181.123 63.5199C182.806 64.4833 184.072 65.8059 184.923 67.4878C185.772 69.1164 186.332 70.8871 186.603 72.7999C186.874 74.7126 187.036 76.5486 187.088 78.3078L187.57 94.3806L182.612 94.5292L182.131 78.4564C182.025 74.938 181.327 72.1043 180.035 69.9554C178.797 67.8049 176.418 66.7823 172.9 66.8878C170.501 66.9597 168.546 67.6053 167.035 68.8244C165.576 69.9886 164.529 71.5407 163.893 73.4806C163.31 75.3656 163.051 77.4276 163.118 79.6666L163.581 95.0997L158.303 95.2579ZM208.808 94.5443C205.662 94.6386 203.002 93.998 200.827 92.6226C198.704 91.2456 197.073 89.3202 195.931 86.8467C194.842 84.3182 194.25 81.4813 194.155 78.3361C194.01 73.4849 195.09 69.4507 197.394 66.2336C199.699 63.0164 203.197 61.3375 207.888 61.1969C210.074 61.1314 211.897 61.4502 213.359 62.1534C214.873 62.8016 216.098 63.6186 217.034 64.6044C217.971 65.5901 218.665 66.503 219.117 67.3432C219.569 68.1833 219.853 68.7351 219.967 68.9984L220.127 68.9937L219.589 48.3605L224.866 48.2023L226.216 93.2221L221.738 93.3563L220.723 86.1835L220.563 86.1883C220.464 86.4581 220.188 87.0266 219.733 87.8939C219.279 88.7613 218.587 89.6891 217.656 90.6774C216.778 91.6642 215.604 92.5531 214.134 93.3442C212.716 94.0803 210.94 94.4804 208.808 94.5443ZM209.951 89.948C213.096 89.8537 215.623 88.7108 217.531 86.5193C219.491 84.2729 220.416 81.2839 220.304 77.5522C220.193 73.8739 219.173 70.9965 217.244 68.92C215.312 66.7903 212.774 65.7725 209.629 65.8668C207.123 65.9419 205.088 66.5899 203.524 67.8106C201.959 68.978 200.83 70.4792 200.138 72.3141C199.446 74.149 199.131 76.106 199.193 78.185C199.254 80.2108 199.659 82.1462 200.408 83.9913C201.155 85.783 202.293 87.2429 203.821 88.371C205.348 89.499 207.392 90.0247 209.951 89.948ZM232.957 93.02L231.982 60.4746L236.38 60.3428L237.501 68.3928L237.661 68.388C237.707 68.1198 237.93 67.5529 238.331 66.6872C238.732 65.8214 239.344 64.896 240.168 63.9109C241.044 62.8708 242.191 61.9827 243.61 61.2465C245.027 60.4571 246.855 60.0288 249.094 59.9616C251.919 59.8769 254.147 60.3171 255.777 61.282C257.459 62.2453 258.726 63.568 259.577 65.2499C260.426 66.8785 260.986 68.6492 261.257 70.562C261.528 72.4747 261.69 74.3107 261.742 76.0699L262.224 92.1427L257.266 92.2913L256.785 76.2185C256.679 72.7001 255.981 69.8664 254.689 67.7175C253.451 65.567 251.072 64.5444 247.554 64.6499C245.155 64.7218 243.2 65.3673 241.689 66.5865C240.23 67.7507 239.183 69.3028 238.547 71.2427C237.963 73.1277 237.705 75.1897 237.772 77.4287L238.235 92.8618L232.957 93.02ZM283.462 92.3064C279.89 92.4135 276.907 91.7025 274.514 90.1735C272.172 88.5897 270.403 86.5351 269.207 84.0098C268.062 81.4296 267.448 78.7535 267.365 75.9814C267.274 72.9427 267.778 70.1531 268.875 67.6124C270.025 65.0168 271.723 62.9383 273.971 61.3769C276.272 59.8139 279.048 58.9837 282.3 58.8862C286.458 58.7615 289.964 60.0171 292.817 62.6527C295.669 65.2351 297.27 68.7887 297.619 73.3137C297.679 73.5253 297.715 73.8444 297.728 74.2708C297.739 74.644 297.749 74.9905 297.759 75.3104L272.33 76.0726C272.444 79.8576 273.439 82.8158 275.318 84.9471C277.247 87.0236 279.891 88.0114 283.25 87.9108C285.755 87.8357 287.869 87.132 289.589 85.7999C291.364 84.4661 292.431 82.7 292.792 80.5015L297.83 80.3505C297.396 83.6717 295.906 86.4642 293.359 88.7282C290.812 90.9922 287.513 92.1849 283.462 92.3064ZM272.406 73.2691L292.397 72.6698C292.364 71.5503 292.004 70.2272 291.318 68.7004C290.685 67.172 289.632 65.8696 288.159 64.7933C286.738 63.662 284.801 63.1331 282.349 63.2067C280.11 63.2738 278.285 63.8087 276.875 64.8114C275.464 65.8141 274.408 67.073 273.707 68.588C273.005 70.1031 272.572 71.6634 272.406 73.2691ZM317.7 91.28C314.608 91.3727 312.03 90.8097 309.966 89.591C307.954 88.3174 306.415 86.8162 305.349 85.0873C304.337 83.3569 303.81 81.7986 303.768 80.4126L308.726 80.264C308.728 80.3173 308.766 80.7163 308.842 81.461C308.971 82.2042 309.29 83.0483 309.798 83.9935C310.307 84.9387 311.159 85.7669 312.354 86.4781C313.547 87.1359 315.264 87.4313 317.503 87.3642C319.902 87.2923 321.941 86.8043 323.622 85.9002C325.355 84.9945 326.168 83.6362 326.061 81.8253C326.014 80.2793 325.446 79.1225 324.356 78.3548C323.317 77.5322 321.965 76.9324 320.3 76.5555C318.633 76.1253 316.887 75.7241 315.062 75.3519C313.236 74.9798 311.488 74.4986 309.816 73.9085C308.196 73.2634 306.861 72.343 305.811 71.1472C304.762 69.9515 304.204 68.2607 304.139 66.075C304.059 63.4096 305.195 61.2679 307.548 59.65C309.899 57.9788 312.94 57.0873 316.672 56.9754C318.751 56.9131 320.867 57.1965 323.02 57.8256C325.172 58.4014 326.965 59.4948 328.401 61.1058C329.835 62.6636 330.542 64.91 330.524 67.8453L325.726 67.9891C325.772 65.9601 325.273 64.4544 324.23 63.4719C323.187 62.4894 321.94 61.8598 320.491 61.583C319.094 61.2514 317.809 61.1032 316.636 61.1384C314.344 61.2071 312.464 61.6903 310.997 62.588C309.584 63.4841 308.9 64.7051 308.946 66.2511C308.991 67.7437 309.532 68.8747 310.569 69.644C311.657 70.3584 313.008 70.9315 314.622 71.3633C316.287 71.7402 318.033 72.1148 319.858 72.4869C321.735 72.8042 323.51 73.2845 325.183 73.928C326.857 74.5715 328.219 75.5178 329.27 76.7668C330.375 78.0143 330.961 79.7575 331.028 81.9965C331.121 85.0884 329.882 87.3932 327.313 88.9109C324.743 90.3753 321.538 91.165 317.7 91.28ZM349.483 90.3273C346.391 90.42 343.813 89.857 341.749 88.6383C339.736 87.3646 338.197 85.8634 337.132 84.1346C336.119 82.4041 335.592 80.8459 335.551 79.4598L340.509 79.3112C340.51 79.3645 340.549 79.7635 340.624 80.5083C340.753 81.2514 341.072 82.0956 341.581 83.0408C342.089 83.986 342.941 84.8141 344.136 85.5253C345.33 86.1832 347.046 86.4785 349.285 86.4114C351.684 86.3395 353.724 85.8515 355.404 84.9474C357.138 84.0417 357.951 82.6834 357.843 80.8725C357.797 79.3265 357.229 78.1697 356.138 77.402C355.1 76.5794 353.748 75.9797 352.083 75.6028C350.416 75.1725 348.67 74.7713 346.844 74.3992C345.019 74.027 343.27 73.5459 341.599 72.9557C339.979 72.3106 338.644 71.3902 337.594 70.1945C336.544 68.9987 335.987 67.308 335.921 65.1223C335.841 62.4568 336.978 60.3152 339.33 58.6973C341.681 57.0261 344.723 56.1345 348.454 56.0227C350.533 55.9604 352.649 56.2437 354.803 56.8728C356.954 57.4486 358.748 58.542 360.183 60.1531C361.617 61.7108 362.325 63.9573 362.306 66.8925L357.508 67.0363C357.554 65.0074 357.056 63.5016 356.012 62.5191C354.969 61.5366 353.723 60.907 352.274 60.6303C350.877 60.2987 349.592 60.1504 348.419 60.1856C346.127 60.2543 344.247 60.7375 342.78 61.6352C341.366 62.5313 340.682 63.7524 340.729 65.2983C340.774 66.791 341.314 67.922 342.351 68.6912C343.44 69.4056 344.791 69.9787 346.405 70.4106C348.07 70.7875 349.815 71.162 351.641 71.5342C353.518 71.8514 355.293 72.3318 356.966 72.9752C358.639 73.6187 360.002 74.565 361.053 75.8141C362.158 77.0615 362.743 78.8048 362.81 81.0437C362.903 84.1357 361.665 86.4405 359.096 87.9582C356.525 89.4225 353.321 90.2122 349.483 90.3273ZM395.661 97.3467C394.542 97.3803 393.443 97.2265 392.366 96.8853C391.29 96.5974 390.388 95.8774 389.66 94.7254C388.932 93.5734 388.478 91.7995 388.3 89.4037C381.837 89.1706 376.837 87.0262 373.3 82.9703C369.816 78.8595 367.971 73.3924 367.766 66.5688C367.626 61.8775 368.302 57.7487 369.796 54.1824C371.343 50.6144 373.714 47.8221 376.908 45.8055C380.101 43.7356 384.123 42.6279 388.974 42.4825C393.772 42.3386 397.799 43.1784 401.055 45.0016C404.365 46.8233 406.898 49.4685 408.656 52.9374C410.413 56.353 411.362 60.433 411.504 65.1776C411.701 71.7346 410.237 77.1943 407.113 81.5565C404.043 85.9171 399.37 88.4583 393.095 89.18C393.129 90.2995 393.344 91.2534 393.741 92.0419C394.192 92.8287 395.19 93.199 396.736 93.1527C397.429 93.1319 398.116 92.8979 398.796 92.4506C399.529 92.0018 400.083 91.7718 400.456 91.7606L400.976 95.7468C400.869 95.75 400.499 95.8678 399.866 96.1002C399.234 96.3859 398.522 96.6474 397.728 96.8846C396.937 97.1751 396.248 97.3292 395.661 97.3467ZM390.15 84.386C395.695 84.2198 399.802 82.416 402.474 78.9744C405.199 75.5312 406.475 70.9575 406.304 65.2534C406.137 59.6559 404.616 55.2195 401.744 51.9441C398.922 48.6138 394.687 47.0334 389.036 47.2027C383.598 47.3658 379.515 49.1155 376.788 52.4521C374.06 55.7887 372.784 60.389 372.959 66.253C373.129 71.9038 374.624 76.3944 377.445 79.7247C380.318 83 384.553 84.5538 390.15 84.386ZM429.817 87.9191C427.151 87.999 424.978 87.5839 423.296 86.6739C421.668 85.7623 420.404 84.5196 419.503 82.9459C418.6 81.3189 417.961 79.5506 417.583 77.641C417.257 75.6766 417.065 73.7081 417.006 71.7357L416.503 54.9432L421.62 54.7898L422.126 71.6622C422.19 73.7946 422.462 75.7607 422.943 77.5604C423.424 79.3601 424.32 80.7739 425.631 81.8017C426.996 82.828 428.931 83.3035 431.437 83.2284C433.836 83.1565 435.686 82.5675 436.986 81.4614C438.339 80.3003 439.309 78.8306 439.895 77.0522C440.482 75.2738 440.801 73.4235 440.85 71.5011L440.332 54.2289L445.609 54.0707L446.585 86.6161L442.187 86.7479L441.089 79.4975L440.929 79.5023C440.69 80.4166 440.163 81.5262 439.348 82.8312C438.534 84.1362 437.341 85.2924 435.771 86.3C434.254 87.3059 432.269 87.8456 429.817 87.9191ZM468.144 86.7701C464.573 86.8772 461.59 86.1663 459.196 84.6373C456.855 83.0534 455.086 80.9988 453.889 78.4735C452.745 75.8933 452.131 73.2172 452.048 70.4451C451.957 67.4065 452.46 64.6168 453.558 62.0761C454.707 59.4805 456.406 57.402 458.653 55.8406C460.954 54.2777 463.731 53.4474 466.982 53.3499C471.141 53.2253 474.646 54.4808 477.5 57.1165C480.352 59.6989 481.953 63.2525 482.302 67.7774C482.361 67.989 482.398 68.3081 482.41 68.7346C482.422 69.1077 482.432 69.4542 482.442 69.7741L457.013 70.5364C457.126 74.3213 458.122 77.2795 460 79.4109C461.93 81.4873 464.574 82.4752 467.933 82.3745C470.438 82.2994 472.551 81.5958 474.272 80.2636C476.046 78.9298 477.114 77.1637 477.475 74.9653L482.513 74.8142C482.079 78.1354 480.588 80.928 478.042 83.192C475.495 85.456 472.196 86.6487 468.144 86.7701ZM457.089 67.7328L477.08 67.1336C477.046 66.0141 476.687 64.6909 476.001 63.1641C475.368 61.6357 474.315 60.3334 472.842 59.257C471.421 58.1258 469.484 57.5969 467.032 57.6704C464.793 57.7375 462.968 58.2724 461.558 59.2751C460.147 60.2779 459.091 61.5367 458.389 63.0518C457.688 64.5668 457.254 66.1272 457.089 67.7328ZM502.383 85.7438C499.291 85.8365 496.713 85.2734 494.649 84.0547C492.636 82.7811 491.097 81.2799 490.032 79.5511C489.019 77.8206 488.492 76.2624 488.451 74.8763L493.409 74.7277C493.41 74.781 493.449 75.18 493.525 75.9248C493.654 76.6679 493.972 77.5121 494.481 78.4573C494.989 79.4024 495.841 80.2306 497.036 80.9418C498.23 81.5997 499.946 81.895 502.185 81.8279C504.584 81.756 506.624 81.268 508.304 80.3639C510.038 79.4582 510.851 78.0999 510.743 76.289C510.697 74.743 510.129 73.5862 509.038 72.8185C508 71.9959 506.648 71.3962 504.983 71.0192C503.316 70.589 501.57 70.1878 499.744 69.8157C497.919 69.4435 496.17 68.9624 494.499 68.3722C492.879 67.7271 491.544 66.8067 490.494 65.6109C489.445 64.4152 488.887 62.7245 488.821 60.5388C488.742 57.8733 489.878 55.7316 492.23 54.1138C494.581 52.4426 497.623 51.551 501.354 51.4392C503.433 51.3768 505.55 51.6602 507.703 52.2893C509.854 52.8651 511.648 53.9585 513.083 55.5696C514.517 57.1273 515.225 59.3738 515.206 62.309L510.408 62.4528C510.454 60.4239 509.956 58.9181 508.912 57.9356C507.869 56.9531 506.623 56.3235 505.174 56.0468C503.777 55.7152 502.492 55.5669 501.319 55.6021C499.027 55.6708 497.147 56.154 495.68 57.0517C494.266 57.9478 493.582 59.1689 493.629 60.7148C493.674 62.2075 494.214 63.3385 495.251 64.1077C496.34 64.8221 497.691 65.3952 499.305 65.8271C500.97 66.204 502.715 66.5785 504.541 66.9507C506.418 67.2679 508.193 67.7483 509.866 68.3917C511.54 69.0352 512.902 69.9815 513.953 71.2306C515.058 72.478 515.643 74.2213 515.711 76.4602C515.803 79.5522 514.565 81.857 511.996 83.3747C509.425 84.839 506.221 85.6287 502.383 85.7438ZM529.734 84.1235C527.762 84.1826 526.359 83.6911 525.528 82.6489C524.75 81.605 524.332 80.1502 524.277 78.2844L523.596 55.5746L518.478 55.728L518.363 51.8897C520.069 51.8386 521.318 51.6678 522.109 51.3772C522.953 51.0318 523.463 50.2695 523.642 49.0903C523.82 47.9111 523.869 45.9888 523.789 43.3233L528.187 43.1915L528.438 51.5877L535.955 51.3624L536.07 55.2006L528.554 55.426L529.289 79.975L536.886 79.7472L537.011 83.9054L529.734 84.1235Z" fill="black"/>
<defs>
<filter id="filter0_d_2_39" x="1.71765" y="10.5848" width="638.761" height="119.89" filterUnits="userSpaceOnUse" color-interpolation-filters="sRGB">
<feFlood flood-opacity="0" result="BackgroundImageFix"/>
<feColorMatrix in="SourceAlpha" type="matrix" values="0 0 0 0 0 0 0 0 0 0 0 0 0 0 0 0 0 0 127 0" result="hardAlpha"/>
<feOffset dx="6" dy="6"/>
<feComposite in2="hardAlpha" operator="out"/>
<feColorMatrix type="matrix" values="0 0 0 0 0 0 0 0 0 0 0 0 0 0 0 0 0 0 1 0"/>
<feBlend mode="normal" in2="BackgroundImageFix" result="effect1_dropShadow_2_39"/>
<feBlend mode="normal" in="SourceGraphic" in2="effect1_dropShadow_2_39" result="shape"/>
</filter>
</defs>
</svg>
