<svg width="66" height="66" viewBox="0 0 66 66" fill="none" xmlns="http://www.w3.org/2000/svg">
<g filter="url(#filter0_d_3_94)">
<rect width="60" height="60" rx="10" fill="#FED834"/>
<rect x="0.5" y="0.5" width="59" height="59" rx="9.5" stroke="black"/>
</g>
<path d="M30 24.375C26.9004 24.375 24.375 26.9004 24.375 30C24.375 33.0996 26.9004 35.625 30 35.625C33.0996 35.625 35.625 33.0996 35.625 30C35.625 26.9004 33.0996 24.375 30 24.375ZM44.4375 29.0918L38.8887 26.3203L40.8516 20.4375C41.1152 19.6406 40.3594 18.8848 39.5684 19.1543L33.6855 21.1172L30.9082 15.5625C30.5332 14.8125 29.4668 14.8125 29.0918 15.5625L26.3203 21.1113L20.4316 19.1484C19.6348 18.8848 18.8789 19.6406 19.1484 20.4316L21.1113 26.3145L15.5625 29.0918C14.8125 29.4668 14.8125 30.5332 15.5625 30.9082L21.1113 33.6797L19.1484 39.5684C18.8848 40.3652 19.6406 41.1211 20.4316 40.8516L26.3145 38.8887L29.0859 44.4375C29.4609 45.1875 30.5273 45.1875 30.9023 44.4375L33.6738 38.8887L39.5566 40.8516C40.3535 41.1152 41.1094 40.3594 40.8398 39.5684L38.877 33.6855L44.4258 30.9141C45.1875 30.5332 45.1875 29.4668 44.4375 29.0918ZM35.3027 35.3027C32.3789 38.2266 27.6211 38.2266 24.6973 35.3027C21.7734 32.3789 21.7734 27.6211 24.6973 24.6973C27.6211 21.7734 32.3789 21.7734 35.3027 24.6973C38.2266 27.6211 38.2266 32.3789 35.3027 35.3027Z" fill="black"/>
<defs>
<filter id="filter0_d_3_94" x="0" y="0" width="66" height="66" filterUnits="userSpaceOnUse" color-interpolation-filters="sRGB">
<feFlood flood-opacity="0" result="BackgroundImageFix"/>
<feColorMatrix in="SourceAlpha" type="matrix" values="0 0 0 0 0 0 0 0 0 0 0 0 0 0 0 0 0 0 127 0" result="hardAlpha"/>
<feOffset dx="6" dy="6"/>
<feComposite in2="hardAlpha" operator="out"/>
<feColorMatrix type="matrix" values="0 0 0 0 0 0 0 0 0 0 0 0 0 0 0 0 0 0 1 0"/>
<feBlend mode="normal" in2="BackgroundImageFix" result="effect1_dropShadow_3_94"/>
<feBlend mode="normal" in="SourceGraphic" in2="effect1_dropShadow_3_94" result="shape"/>
</filter>
</defs>
</svg>
