<svg width="181" height="140" viewBox="0 0 181 140" fill="none" xmlns="http://www.w3.org/2000/svg">
<path d="M98.9997 27.4594L106.892 50.1316C108.162 53.7811 111.255 56.4964 115.038 57.2843L133.787 61.189C143.341 63.1786 143.341 76.8214 133.787 78.811L115.038 82.7157C111.255 83.5036 108.162 86.2189 106.892 89.8684L98.9998 112.541C96.1958 120.596 84.8042 120.596 82.0003 112.541L74.1081 89.8684C72.8377 86.2189 69.7454 83.5036 65.9622 82.7157L47.2126 78.811C37.6592 76.8214 37.6592 63.1786 47.2126 61.189L65.9622 57.2843C69.7454 56.4964 72.8377 53.7811 74.1081 50.1316L82.0002 27.4594C84.8042 19.4044 96.1958 19.4044 98.9997 27.4594Z" fill="#FB872F" stroke="black" stroke-width="2"/>
<circle cx="90.5" cy="67.5" r="15.5" fill="#FED834"/>
</svg>
